<svg width="149" height="33" viewBox="0 0 149 33" fill="none" xmlns="http://www.w3.org/2000/svg">
<path d="M16.3607 0H12.1629H0V12.0533H12.1629H23.5723V7.14664C23.4647 3.19999 20.2356 0 16.3607 0Z" fill="#EF4638"/>
<path d="M0 12.0527V16.2127C0 20.1594 3.22908 23.3594 7.21161 23.3594H12.1629V14.0794L0 12.0527Z" fill="#191424"/>
<path d="M85.5724 11.5195H82.5586V27.9461H85.5724V11.5195Z" fill="#191424"/>
<path d="M97.1976 17.6L96.9824 17.3867C96.0137 16.4267 94.722 16 93.1075 16C89.6631 16 87.1875 18.56 87.1875 22.1866C87.1875 25.8133 89.5555 28.3733 93.1075 28.3733C94.722 28.3733 96.1213 27.7333 97.1976 26.56L97.4129 26.3466V28.0533H100.104V16.32H97.1976V17.6ZM93.538 25.7066C91.8158 25.7066 90.0937 24.5333 90.0937 22.08C90.0937 20.2667 91.17 18.4533 93.4304 18.4533C95.6907 18.4533 96.7671 20.2667 96.7671 22.08C96.8747 23.8933 95.906 25.7066 93.538 25.7066Z" fill="#191424"/>
<path d="M108.173 24.427L108.065 24.107L105.052 16.3203H101.715L106.774 28.0536L104.944 32.7469H107.85L114.308 16.3203H111.079L108.173 24.427Z" fill="#191424"/>
<path d="M122.061 16C118.616 16 116.141 18.6667 116.141 22.1866C116.141 25.92 118.724 28.2666 122.814 28.2666C124.967 28.2666 126.366 27.84 127.12 27.52H127.227V25.0666C126.581 25.28 125.182 25.8133 123.352 25.8133C120.769 25.8133 119.477 24.96 119.154 23.1466V23.04H127.981C127.981 22.8266 128.088 22.6133 128.088 22.1866C127.873 18.4533 125.505 16 122.061 16ZM119.047 20.9067V20.8C119.37 19.3067 120.554 18.56 122.168 18.56C123.783 18.56 124.967 19.4133 125.29 20.8V20.9067H119.047Z" fill="#191424"/>
<path d="M136.912 16C135.298 16.1067 134.006 16.64 133.253 17.7067L133.037 17.92V16.32H130.023V27.9466H133.037V22.4C133.037 20.2667 134.006 19.2 135.728 19.0933L137.343 16C137.235 16 137.127 16 136.912 16Z" fill="#191424"/>
<path d="M143.373 20.6926C143.265 20.6926 143.05 20.5859 142.943 20.5859C141.759 20.3726 140.682 20.1592 140.682 19.4126C140.682 18.7726 141.543 18.2392 142.835 18.2392C144.127 18.2392 145.311 18.6659 146.602 19.4126L147.679 17.3859C146.279 16.4259 144.557 15.8926 142.62 15.8926C139.606 15.8926 137.668 17.2792 137.668 19.5192C137.668 21.7592 139.606 22.5059 142.404 23.0392H142.512C143.804 23.2526 144.988 23.5726 144.988 24.4259C144.988 25.1725 144.127 25.7059 142.727 25.7059C141.328 25.7059 140.144 25.2792 138.745 24.2126L137.453 26.2392C138.96 27.5192 140.682 28.1592 142.835 28.1592C146.064 28.1592 148.001 26.6659 148.001 24.3192C148.001 22.3992 146.602 21.3326 143.373 20.6926Z" fill="#191424"/>
<path d="M23.1426 16C19.6983 16 17.2227 18.6667 17.2227 22.1866C17.2227 25.92 19.8059 28.2666 23.8961 28.2666C26.0488 28.2666 27.4481 27.84 28.2015 27.52H28.3092V25.0666C27.6633 25.28 26.2641 25.8133 24.4343 25.8133C21.851 25.8133 20.5594 24.96 20.2365 23.1466V23.04H29.0626C29.0626 22.8266 29.1702 22.6133 29.1702 22.1866C28.955 18.4533 26.587 16 23.1426 16ZM20.1288 20.9067V20.8C20.4517 19.3067 21.6357 18.56 23.2503 18.56C24.8648 18.56 26.0488 19.4133 26.3717 20.8V20.9067H20.1288Z" fill="#191424"/>
<path d="M40.5805 17.6L40.3652 17.3867C39.3965 16.4267 38.1048 16 36.4903 16C33.0459 16 30.5703 18.56 30.5703 22.1866C30.5703 25.8133 32.9383 28.3733 36.4903 28.3733C38.1048 28.3733 39.5041 27.7333 40.5805 26.56L40.7957 26.3466V28.0533H43.4866V16.32H40.5805V17.6ZM36.9208 25.7066C35.1987 25.7066 33.4765 24.5333 33.4765 22.08C33.4765 20.2667 34.5528 18.4533 36.8132 18.4533C39.1812 18.4533 40.1499 20.2667 40.1499 22.08C40.3652 23.8933 39.2888 25.7066 36.9208 25.7066Z" fill="#191424"/>
<path d="M51.4512 20.6926C51.3436 20.6926 51.1283 20.5859 51.0207 20.5859C49.8367 20.3726 48.7603 20.1592 48.7603 19.4126C48.7603 18.7726 49.6214 18.2392 50.9131 18.2392C52.2047 18.2392 53.3887 18.6659 54.6803 19.4126L55.7567 17.3859C54.3574 16.4259 52.6352 15.8926 50.6978 15.8926C47.684 15.8926 45.7465 17.2792 45.7465 19.5192C45.7465 21.7592 47.684 22.5059 50.4825 23.0392H50.5901C51.8818 23.2526 53.0658 23.5726 53.0658 24.4259C53.0658 25.1725 52.2047 25.7059 50.8054 25.7059C49.4061 25.7059 48.2221 25.2792 46.8229 24.2126L45.5312 26.2392C47.0382 27.5192 48.7603 28.1592 50.9131 28.1592C54.1421 28.1592 56.0796 26.6659 56.0796 24.3192C56.0796 22.3992 54.6803 21.3326 51.4512 20.6926Z" fill="#191424"/>
<path d="M62.43 23.7856V18.5589H64.4751L65.6591 16.2123H62.43V12.2656H59.4162V16.2123H57.3711V18.5589H59.4162V23.4656C59.4162 25.2789 59.4162 28.1589 63.7216 28.1589C64.5827 28.1589 65.6591 28.0522 66.4125 27.9456V25.4922C65.8743 25.5989 65.1209 25.7056 64.4751 25.7056C62.43 25.8122 62.43 24.6389 62.43 23.7856Z" fill="#191424"/>
<path d="M75.0237 16C73.5168 16 72.1175 16.5333 71.1488 17.4933L70.9335 17.7067V16.4267H68.0273V32.4266H70.9335V26.7733L71.1488 26.9866C72.1175 27.9466 73.4091 28.48 74.916 28.48C78.3604 28.48 80.836 25.92 80.836 22.2933C80.836 18.4533 78.468 16 75.0237 16ZM74.5931 25.7066C72.2252 25.7066 71.2564 23.8933 71.2564 22.08C71.2564 20.2666 72.3328 18.4533 74.5931 18.4533C76.3153 18.4533 78.0375 19.6267 78.0375 22.08C77.9299 24.64 76.2077 25.7066 74.5931 25.7066Z" fill="#191424"/>
</svg>
